<svg width="339" height="110" viewBox="0 0 339 110" fill="none" xmlns="http://www.w3.org/2000/svg">
<path d="M68.561 66.5337C85.2847 62.4954 102.144 58.5917 119.14 55.4957C136.136 52.3997 153.267 50.1113 170.671 49.7075C188.074 49.3036 205.342 50.9189 222.474 53.6111C239.605 56.3033 256.465 59.9378 273.325 63.5723L270.741 65.053C272.781 58.3225 274.684 51.592 276.452 44.8615C277.268 41.4963 278.219 38.131 278.899 34.6312C279.579 31.2659 280.395 27.766 280.531 24.8046L281.754 26.9584C273.596 22.1124 264.623 18.6126 255.377 15.9204C246.131 13.2282 236.614 11.3436 226.96 9.86294C217.307 8.51684 207.653 7.57457 198 7.03613C188.346 6.49769 178.557 6.36308 168.903 6.6323C149.46 6.90152 130.017 8.24762 110.71 11.0744C101.057 12.5551 91.5391 14.3051 82.1575 16.728C77.3987 17.9395 72.7759 19.151 68.1531 20.7663C63.5303 22.247 59.0434 23.997 54.8285 26.1507L55.6443 24.1316C57.4118 30.9967 59.3153 37.8618 61.2188 44.7269C62.1706 48.0921 63.2583 51.592 64.346 54.9572C65.4338 58.3225 66.5215 61.6877 67.7452 65.053C67.7452 65.1876 67.7452 65.4568 67.6092 65.4568C67.4732 65.4568 67.2013 65.4568 67.2013 65.3222C64.0741 58.8609 61.6267 52.1304 59.1794 45.3999C56.732 38.6694 54.4206 31.939 52.3811 25.0739C52.1092 24.2662 52.5171 23.4585 53.1969 23.0547C57.6837 20.4971 62.1706 18.6126 66.7934 16.728C71.4162 14.9781 76.175 13.3628 80.9338 12.0167C90.4514 9.3245 100.105 7.17074 109.894 5.42081C119.684 3.67088 129.473 2.32478 139.263 1.51712C144.158 1.2479 149.052 0.709463 154.083 0.574853C158.978 0.305634 164.009 0.0364139 168.903 0.0364139C188.618 -0.232806 208.469 0.978683 228.048 4.07471C237.838 5.69003 247.491 7.84379 257.009 10.8052C266.526 13.7666 275.772 17.5357 284.474 22.7855H284.61C285.289 23.1893 285.697 23.997 285.697 24.8046C285.425 28.8429 284.61 32.2082 283.794 35.708C282.978 39.2079 282.026 42.5731 281.075 45.9384C279.171 52.8035 277.132 59.534 275.092 66.2645C274.82 67.3414 273.596 68.0144 272.509 67.7452C255.785 63.8415 238.925 59.9378 222.066 57.111C205.206 54.2842 188.074 52.265 170.943 52.3997C153.811 52.5343 136.68 54.4188 119.684 57.111C102.688 59.9378 85.8285 63.5723 68.9689 67.2067C68.8329 67.2067 68.561 67.0721 68.561 66.9375C68.561 66.8029 68.6969 66.5337 68.8329 66.5337H68.561Z" fill="#A5D6A7"/>
<path d="M58.9076 41.496C48.4382 45.9382 38.5128 51.5918 29.2672 58.1877C20.0215 64.7835 11.3198 72.0525 3.16185 79.8598L1.53027 76.36C13.3592 74.6101 25.3242 73.8024 37.2891 73.937C37.561 73.937 38.2409 73.937 38.9207 74.0716C39.3286 74.2062 39.7365 74.3408 40.2803 74.6101C40.8242 74.8793 41.3681 75.5523 41.776 76.36C42.0479 77.1676 42.0479 77.9753 41.9119 78.5137C41.776 79.0522 41.64 79.456 41.504 79.7252L40.9602 80.8021C40.2803 82.1482 39.6005 83.4943 38.9207 84.8404C37.561 87.5326 36.0654 90.0902 34.7058 92.6478C31.7145 97.763 28.8593 102.744 26.14 107.859L21.925 103.282C26.004 101.667 30.083 99.6475 34.1619 97.6283C38.2409 95.4746 42.4558 93.4554 46.6707 91.5709C51.0216 89.6864 55.3725 87.9364 59.8593 86.5903C64.3462 85.2442 68.833 84.0327 73.4558 83.2251C73.5918 83.2251 73.8637 83.3597 73.8637 83.4943C73.8637 83.6289 73.8637 83.7635 73.7278 83.8981C69.5128 85.7827 65.2979 87.6672 61.219 89.6864C57.14 91.7055 53.0611 93.8593 49.1181 96.1476C45.1751 98.3014 41.2321 100.859 37.2891 103.147C33.3461 105.57 29.1312 107.859 24.7803 109.743C23.1487 110.416 21.1093 109.743 20.4294 107.993C20.0215 107.051 20.0215 106.109 20.4294 105.166V105.032C23.1487 99.6475 26.4119 94.6669 29.4031 89.6864C31.0347 87.2634 32.5303 84.7058 34.0259 82.2828C34.7058 81.0713 35.5216 79.8598 36.2014 78.5137L36.7452 77.7061C36.7452 77.7061 36.7452 77.7061 36.7452 77.8407C36.7452 77.9753 36.7452 78.3791 36.8812 78.9176C37.0172 79.3214 37.4251 79.7252 37.561 79.8598C37.833 79.9944 37.833 79.9944 37.9689 79.9944C37.9689 79.9944 37.833 79.9944 37.4251 79.9944C25.7321 79.3214 14.0391 79.7252 2.34606 80.9367H2.21009C1.12237 81.0713 0.170614 80.2637 0.0346485 79.1868C-0.101317 78.5137 0.170614 77.8407 0.714474 77.4369C9.41625 69.8987 18.3899 62.7644 28.1794 56.7069C37.833 50.5149 48.1663 45.2651 59.0435 41.496C59.1795 41.496 59.4514 41.496 59.4514 41.6306C59.4514 41.7653 59.4514 42.0345 59.3155 42.0345L58.9076 41.496Z" fill="#A5D6A7"/>
<path d="M95.6183 61.2834C92.763 65.5909 89.6358 69.7638 86.5087 73.9367C84.8771 75.9559 83.2455 77.975 81.4779 79.9942C79.7104 81.8787 77.9429 84.0325 76.0393 85.917C74.8157 87.1285 72.9121 87.1285 71.8244 85.917C71.5525 85.6478 71.2806 85.3786 71.1446 84.9747L70.8727 84.3017C69.649 81.6095 68.9692 78.7827 68.2893 75.8213C67.7455 72.8599 67.3376 69.7638 67.6095 66.5332C67.6095 66.3986 67.7455 66.264 68.0174 66.264C68.1534 66.264 68.1534 66.264 68.2893 66.3986C69.3771 67.6101 70.3288 68.8216 71.1446 70.1677C71.9604 71.3792 72.7762 72.7253 73.592 74.0713C75.0876 76.7635 76.3113 79.5904 76.9911 82.5518L71.8244 81.0711C73.8639 79.725 75.9034 78.2443 77.8069 76.6289C79.7104 75.0136 81.6139 73.2637 83.5174 71.5138L94.9385 61.0142C95.0745 60.8796 95.3464 60.8796 95.3464 61.0142C95.4823 61.1488 95.4823 61.2834 95.3464 61.418L95.6183 61.2834Z" fill="#A5D6A7"/>
<path d="M279.987 39.8813C290.864 43.785 301.061 48.9002 310.851 55.0922C320.64 61.2843 329.75 68.284 338.316 75.8222C339.132 76.4952 339.268 77.8413 338.452 78.649C338.044 79.1874 337.364 79.322 336.684 79.322H336.548C324.855 77.9759 313.162 77.7067 301.469 78.3797C301.061 78.3797 300.926 78.3797 300.926 78.3797C300.926 78.3797 301.061 78.3797 301.333 78.2451C301.605 78.1105 301.877 77.7067 302.013 77.3029C302.149 76.899 302.149 76.4952 302.149 76.226C302.149 76.0914 302.149 76.0914 302.149 76.0914L302.693 76.899C303.373 78.1105 304.053 79.4566 304.868 80.6681C306.364 83.0911 307.86 85.6487 309.491 88.0717C312.619 93.0522 315.746 98.0328 318.465 103.417V103.552C319.281 105.167 318.601 107.186 316.969 107.994C316.018 108.398 315.066 108.398 314.114 108.129C309.627 106.244 305.548 103.821 301.605 101.533C297.662 99.2443 293.719 96.8213 289.776 94.5329C285.833 92.2446 281.754 90.0908 277.675 88.0717C273.596 86.0525 269.382 84.168 265.167 82.2834C265.031 82.1488 264.895 82.0142 265.031 81.8796C265.031 81.745 265.303 81.6104 265.439 81.745C270.061 82.5527 274.548 83.7641 279.035 85.1102C283.522 86.4563 287.873 88.2063 292.224 90.0908C296.439 91.9753 300.654 94.1291 304.733 96.1483C308.811 98.1674 312.89 100.187 316.969 101.802L312.754 106.379C310.035 101.398 307.18 96.2829 304.189 91.1677C302.693 88.6101 301.333 86.0525 299.974 83.3603C299.294 82.0142 298.614 80.6681 297.934 79.322L297.39 78.2451C297.254 77.9759 297.118 77.5721 296.983 77.0336C296.847 76.4952 296.847 75.6875 297.118 74.8799C297.39 74.0722 298.07 73.5338 298.614 73.13C299.158 72.8607 299.566 72.5915 299.974 72.5915C300.79 72.4569 301.333 72.4569 301.605 72.4569C313.57 72.3223 325.535 73.13 337.364 74.8799L335.733 78.3797C327.439 70.5724 318.873 63.3034 309.627 56.7075C300.382 50.1117 290.456 44.458 279.987 40.0159C279.851 39.8813 279.715 39.7467 279.851 39.6121C279.987 39.4775 280.123 39.3429 280.259 39.4775L279.987 39.8813Z" fill="#A5D6A7"/>
<path d="M271.149 65.5901C270.605 68.5516 269.79 71.513 269.11 74.4744C268.294 77.4358 267.614 80.2626 266.934 83.0894C266.662 84.1663 265.575 84.8394 264.487 84.5701C264.215 84.5701 263.943 84.4355 263.807 84.3009L263.535 84.1663C261.36 82.6856 259.32 80.9357 257.281 79.1857C255.241 77.4358 253.066 75.9551 251.298 74.0706C249.531 72.186 248.035 70.0323 246.675 67.7439C245.316 65.4555 244.092 63.1672 243.276 60.475C243.276 60.3404 243.276 60.0711 243.548 60.0711C243.684 60.0711 243.684 60.0711 243.82 60.0711C246.403 61.2826 248.579 62.7633 250.618 64.3787C252.658 65.994 254.561 67.7439 256.329 69.4938C258.096 71.3784 259.456 73.5321 261.088 75.4167C262.719 77.3012 264.487 79.1857 266.254 80.9357L262.855 81.8779C264.079 79.0511 265.303 76.3589 266.662 73.6667C268.022 70.9745 269.246 68.2823 270.605 65.5901C270.741 65.4555 270.877 65.3209 271.013 65.4555C271.149 65.4555 271.285 65.7248 271.149 65.8594V65.5901Z" fill="#A5D6A7"/>
<path d="M83.059 29.6997C84.6867 29.3981 86.5434 29.3778 88.6291 29.6387C89.1298 29.8944 89.4188 30.2267 89.4958 30.6357C89.5684 31.0205 89.4276 31.4076 89.0736 31.7968C88.7393 32.1574 88.317 32.385 87.8068 32.4795C86.4315 32.3858 85.1729 32.4447 84.0311 32.6562C81.4073 33.1423 79.5603 34.2811 78.49 36.0726C77.4197 37.8641 77.1702 40.2753 77.7414 43.3061C78.3127 46.3369 79.561 48.5577 81.4863 49.9685C82.48 50.7055 83.5478 50.9682 84.6896 50.7567C85.8314 50.5452 87.5402 49.6063 89.8158 47.94C90.6133 47.3691 91.1578 47.0566 91.4493 47.0026C92.081 46.8856 92.458 47.1518 92.5804 47.8012C92.7028 48.4507 92.5012 49.0482 91.9754 49.5937C90.0901 51.0632 88.6007 52.0984 87.5071 52.6993C86.409 53.2761 85.4348 53.6433 84.5845 53.8008C82.8354 54.1248 81.2211 53.7642 79.7418 52.7189C77.0868 50.7711 75.3761 47.7647 74.6099 43.6995C73.8392 39.6103 74.3148 36.398 76.0369 34.0625C77.7787 31.6985 80.1194 30.2443 83.059 29.6997Z" fill="#FAFAFA"/>
<path d="M98.0203 37.1217L99.9189 45.5825C100.119 46.6409 100.186 47.2632 100.12 47.4496C100.154 47.8915 100.071 48.2552 99.8738 48.5407C99.7005 48.8217 99.2859 49.0229 98.63 49.1442C98.3141 49.2026 98.0227 49.0574 97.7557 48.7085C97.4842 48.3356 97.2886 47.8988 97.1689 47.3982C96.1999 43.1963 95.22 39.2702 94.2293 35.62C93.2584 31.9412 92.471 28.5023 91.8672 25.3032C91.7719 24.7981 91.867 24.3698 92.1527 24.0182C92.4383 23.6667 92.812 23.4482 93.2736 23.3628C93.9538 23.2369 94.4637 23.7401 94.8031 24.8721C95.1667 25.9997 95.5242 27.4272 95.8753 29.1545C96.2508 30.8773 96.5377 32.1311 96.7361 32.9159C97.8329 32.0658 98.9886 31.5283 100.203 31.3036C103.022 30.7822 105.039 31.6786 106.255 33.9927C106.956 35.3068 107.513 37.0583 107.926 39.2472C108.062 39.9688 108.205 41.1248 108.354 42.7152C108.523 44.2771 108.639 45.2887 108.701 45.7502C108.762 46.2117 108.624 46.6107 108.285 46.9472C107.966 47.2552 107.588 47.4496 107.151 47.5305C106.471 47.6564 106.062 47.3585 105.926 46.6369L104.996 40.3119C104.896 39.7827 104.706 38.9093 104.426 37.6915C104.146 36.4738 103.707 35.5469 103.109 34.9107C102.536 34.27 101.69 34.053 100.573 34.2598C98.5805 34.6283 97.7297 35.5823 98.0203 37.1217Z" fill="#FAFAFA"/>
<path d="M114.683 21.6854C114.751 21.2495 115.017 20.9889 115.478 20.9035C115.964 20.8136 116.368 20.8882 116.69 21.1274C117.036 21.3621 117.227 21.5757 117.263 21.7681C117.295 21.9365 117.298 22.0853 117.272 22.2145C117.087 23.3688 116.624 24.5125 115.883 25.6454C115.166 26.7738 114.564 27.3829 114.078 27.4728C113.592 27.5627 113.205 27.5099 112.917 27.3143C112.628 27.1187 112.455 26.8646 112.396 26.5519C112.332 26.2151 112.455 25.8687 112.765 25.5127C113.877 24.2116 114.517 22.9359 114.683 21.6854ZM119.917 28.0356C120.986 27.8378 121.691 28.6409 122.031 30.4449C122.067 30.6373 122.106 30.8418 122.147 31.0582L122.551 33.5973C122.676 34.3956 122.812 35.1795 122.957 35.9492L125.043 44.0021C125.156 44.6034 124.593 45.0187 123.354 45.2479C123.281 45.2614 123.099 45.2951 122.808 45.349C122.54 45.3985 122.326 45.3262 122.163 45.1322C122.025 44.9337 121.963 44.6714 121.977 44.3452C122.015 44.0145 121.925 43.6702 121.707 43.3124C120.811 44.6977 119.441 45.5612 117.594 45.9028C114.169 46.5365 111.961 44.2316 110.971 38.988C110.422 36.0776 110.553 33.7756 111.365 32.0821C112.201 30.384 113.652 29.344 115.717 28.962C116.689 28.7822 117.692 28.7708 118.728 28.9277C118.962 28.4363 119.358 28.1389 119.917 28.0356ZM116.747 32.02C115.362 32.2762 114.404 32.8641 113.874 33.7837C113.343 34.7033 113.278 36.2214 113.677 38.3381C114.349 41.8979 115.657 43.4981 117.601 43.1385C118.111 43.0441 118.626 42.7122 119.148 42.1429C119.693 41.569 120.033 40.9709 120.167 40.3487C120.383 38.9645 120.346 37.5026 120.055 35.9632C119.765 34.4238 119.359 33.3413 118.839 32.7157C118.343 32.0856 117.645 31.8537 116.747 32.02Z" fill="#FAFAFA"/>
<path d="M138.967 37.7707L139.608 41.4978C139.679 41.9327 139.536 42.3643 139.18 42.7925C138.848 43.2169 138.487 43.4601 138.096 43.5221C137.535 43.6112 137.111 43.2324 136.823 42.3859C136.768 42.1965 136.385 40.4482 135.674 37.1411C134.959 33.8099 134.203 31.2286 133.406 29.3974C133.038 28.5141 132.84 27.9879 132.813 27.8188C132.683 27.0215 133.107 26.5454 134.083 26.3904C134.498 26.3246 134.853 26.4293 135.148 26.7047C135.443 26.9801 135.642 27.283 135.746 27.6135C135.87 27.916 136.001 28.3412 136.14 28.8891C136.279 29.4371 136.372 29.7816 136.42 29.9227C136.737 28.6333 137.359 27.6053 138.286 26.8386C139.213 26.0719 140.287 25.5917 141.507 25.398C143.508 25.0804 144.591 25.429 144.755 26.4438C144.837 26.9511 144.721 27.3909 144.406 27.7631C144.111 28.1073 143.732 28.3162 143.268 28.3897C141.194 28.719 139.835 29.6037 139.192 31.044C138.549 32.4842 138.474 34.7265 138.967 37.7707Z" fill="#FAFAFA"/>
<path d="M152.58 23.6992C153.885 23.5884 155.161 23.8607 156.409 24.5161C157.656 25.1716 158.328 26.06 158.426 27.1815C158.521 28.2786 158.133 29.3921 157.264 30.522C156.392 31.6274 155.165 32.3578 153.584 32.7132C152.903 32.8692 151.873 33.0058 150.494 33.1229C150.944 35.1722 151.592 36.4925 152.437 37.0838C152.706 37.3311 153.05 37.437 153.469 37.4014C154.996 37.2718 156.235 36.6877 157.187 35.6491C158.137 34.5861 158.833 34.0357 159.276 33.9981C159.473 33.9814 159.785 34.1392 160.21 34.4714C160.636 34.8036 160.863 35.1282 160.89 35.4452C160.945 36.0791 160.249 37.0592 158.801 38.3855C158.16 39.0048 157.364 39.5513 156.412 40.025C155.484 40.4722 154.601 40.7314 153.763 40.8024C151.621 40.9843 149.927 39.7529 148.681 37.108C147.895 35.4802 147.414 33.6545 147.239 31.6309C147.063 29.6074 147.393 27.8235 148.226 26.2791C149.06 24.7348 150.511 23.8748 152.58 23.6992ZM152.983 26.2069C152.047 26.2863 151.292 26.8784 150.718 27.9832C150.504 28.3698 150.341 29.2186 150.232 30.5295C153.679 30.2368 155.33 29.2494 155.184 27.5672C155.096 26.5432 154.362 26.0898 152.983 26.2069Z" fill="#FAFAFA"/>
<path d="M173.569 22.7598C173.915 22.7598 174.174 22.8821 174.347 23.1268C174.52 23.347 174.607 23.5917 174.607 23.8609L174.57 24.2279C173.532 26.8462 172.765 28.975 172.271 30.6144C171.95 31.7645 171.703 32.6209 171.53 33.1837C171.381 33.7465 171.122 34.7375 170.751 36.1568C170.38 37.576 170.133 38.4936 170.01 38.9096C169.664 39.7415 169.058 40.1575 168.193 40.1575C167.773 40.1575 167.476 39.8883 167.303 39.35C166.512 36.9031 165.351 34.138 163.818 31.0549C162.286 27.9717 161.409 26.21 161.186 25.7695C160.988 25.3046 160.89 24.8886 160.89 24.5216C160.89 24.1545 161.05 23.7997 161.371 23.4571C161.718 23.1146 162.101 22.9433 162.521 22.9433C162.941 22.9433 163.299 23.1635 163.596 23.604C163.868 24.1423 164.634 25.6472 165.894 28.1186C167.18 30.59 168.082 32.5353 168.601 33.9545C168.626 33.8077 168.712 33.5018 168.86 33.0369C170.121 28.7058 171.147 25.6105 171.937 23.7508C172.358 23.0901 172.901 22.7598 173.569 22.7598Z" fill="#FAFAFA"/>
<path d="M183.034 23.0901C184.344 23.0901 185.592 23.4694 186.778 24.2279C187.965 24.9865 188.558 25.9285 188.558 27.0541C188.558 28.1553 188.076 29.2319 187.112 30.2841C186.148 31.3118 184.863 31.9358 183.256 32.156C182.564 32.2539 181.526 32.3028 180.142 32.3028C180.414 34.3827 180.945 35.753 181.736 36.4137C181.984 36.6828 182.317 36.8174 182.737 36.8174C184.27 36.8174 185.555 36.3403 186.593 35.386C187.631 34.4072 188.373 33.9178 188.817 33.9178C189.015 33.9178 189.312 34.1013 189.707 34.4684C190.103 34.8354 190.3 35.178 190.3 35.4961C190.3 36.1323 189.522 37.0499 187.965 38.2489C187.273 38.8117 186.432 39.2888 185.444 39.6803C184.48 40.0474 183.578 40.2309 182.737 40.2309C180.587 40.2309 179.005 38.8606 177.992 36.1201C177.349 34.4317 177.028 32.572 177.028 30.541C177.028 28.5101 177.51 26.7605 178.474 25.2923C179.438 23.8242 180.958 23.0901 183.034 23.0901ZM183.219 25.6227C182.28 25.6227 181.477 26.1488 180.81 27.201C180.562 27.568 180.328 28.4 180.105 29.6968C183.565 29.6968 185.295 28.8526 185.295 27.1642C185.295 26.1365 184.603 25.6227 183.219 25.6227Z" fill="#FAFAFA"/>
<path d="M194.16 16.3845C194.279 15.4593 194.456 14.8676 194.691 14.6095C194.952 14.3281 195.342 14.2 195.86 14.225C196.922 14.2763 197.432 14.7297 197.39 15.5851C197.358 16.245 197.213 17.9652 196.955 20.7455C196.721 23.5271 196.551 26.0177 196.444 28.2174C196.338 30.4171 196.338 32.1933 196.446 33.5459C196.628 35.9066 196.991 37.1 197.534 37.1263C198.078 37.1525 198.503 36.7934 198.811 36.0488C198.949 35.7615 199.159 35.5144 199.441 35.3075C199.725 35.0762 200.076 34.9707 200.496 34.991C201.36 35.0327 201.757 35.7746 201.687 37.2166C201.649 37.9988 201.179 38.76 200.277 39.5004C199.401 40.2175 198.544 40.5558 197.704 40.5153C196.865 40.4747 196.193 40.3075 195.687 40.0136C195.208 39.6965 194.821 39.2491 194.527 38.6714C194.258 38.0949 194.038 37.5453 193.865 37.0225C193.718 36.4764 193.626 35.8228 193.589 35.0615C193.5 33.8323 193.483 31.8716 193.54 29.1795C193.622 26.4641 193.722 23.8844 193.84 21.4403C193.96 18.9717 194.066 17.2864 194.16 16.3845Z" fill="#FAFAFA"/>
<path d="M215.131 23.793C216.215 23.8759 216.686 24.8323 216.543 26.662C216.528 26.8572 216.512 27.0646 216.495 27.2842L216.221 29.8402C216.133 30.6434 216.059 31.4353 215.998 32.216L215.908 40.5289C215.86 41.1388 215.208 41.3957 213.951 41.2996C213.877 41.294 213.692 41.2798 213.397 41.2572C213.126 41.2365 212.937 41.1117 212.831 40.8827C212.749 40.6556 212.758 40.3862 212.857 40.0747C212.98 39.7651 212.983 39.4095 212.866 39.0078C211.639 40.1166 210.089 40.5994 208.216 40.4562C204.742 40.1905 203.212 37.3984 203.627 32.0799C203.857 29.1279 204.586 26.938 205.812 25.5102C207.064 24.0843 208.737 23.4514 210.832 23.6116C211.817 23.6869 212.79 23.9331 213.749 24.35C214.103 23.9354 214.564 23.7497 215.131 23.793ZM211.027 26.8292C209.622 26.7218 208.544 27.0443 207.791 27.7966C207.038 28.549 206.578 29.9986 206.41 32.1455C206.129 35.7562 206.974 37.637 208.945 37.7877C209.462 37.8273 210.047 37.6388 210.699 37.2224C211.376 36.8079 211.861 36.3172 212.153 35.7506C212.724 34.4689 213.07 33.0474 213.192 31.486C213.314 29.9247 213.205 28.7751 212.866 28.0375C212.552 27.3017 211.939 26.899 211.027 26.8292Z" fill="#FAFAFA"/>
<path d="M225.989 43.0909C225.949 43.4805 225.949 43.7264 225.988 43.8287C226.052 43.9334 226.223 43.9628 226.501 43.9167C226.776 43.895 227.135 43.9062 227.578 43.9504C228.758 44.0681 229.413 44.8343 229.542 46.249C229.577 46.6459 229.578 47.0026 229.545 47.3191C229.464 48.1225 229.084 48.7979 228.408 49.3452C227.731 49.8926 226.815 50.1086 225.659 49.9934C224.528 49.8805 223.622 49.6303 222.941 49.2427C222.284 48.8575 221.977 48.458 222.019 48.0441C222.061 47.6302 222.193 47.3114 222.415 47.0875C222.636 46.8637 222.845 46.7616 223.042 46.7812C223.239 46.8008 223.628 46.9995 224.211 47.3773C224.794 47.7552 225.331 47.9686 225.823 48.0176C226.314 48.0667 226.72 47.9842 227.04 47.7702C227.385 47.5586 227.569 47.3311 227.594 47.0876C227.666 46.3816 227.524 45.9493 227.167 45.7908C227.071 45.7566 226.876 45.7248 226.581 45.6954C226.285 45.666 225.84 45.6462 225.245 45.636C224.139 45.5256 223.651 44.8253 223.782 43.5349L223.834 43.0237C222.081 42.6767 220.777 41.6982 219.922 40.0881C219.07 38.4538 218.77 36.3949 219.023 33.9116C219.189 32.2804 219.771 30.8382 220.768 29.585C221.789 28.3343 223.01 27.4477 224.429 26.9252C225.851 26.3784 227.201 26.1688 228.48 26.2963C229.759 26.4238 230.763 26.6838 231.493 27.0764C232.25 27.447 232.603 27.888 232.551 28.3992C232.501 28.8862 232.303 29.3705 231.956 29.8524C231.636 30.3123 231.242 30.519 230.775 30.4724C230.603 30.4552 230.137 30.2735 229.377 29.9272C228.645 29.559 228.168 29.3639 227.946 29.3418C226.52 29.1996 225.25 29.6016 224.135 30.548C223.023 31.47 222.38 32.7831 222.206 34.4873C222.033 36.1915 222.173 37.4967 222.628 38.4028C223.109 39.2869 224.026 39.7965 225.379 39.9314C225.92 39.9853 226.873 39.773 228.238 39.2943C229.63 38.7937 230.486 38.5594 230.806 38.5913C231.126 38.6231 231.374 38.7463 231.551 38.9607C231.728 39.175 231.801 39.4283 231.772 39.7205C231.712 40.3048 231.28 40.8888 230.476 41.4726C229.194 42.3531 227.698 42.8925 225.989 43.0909Z" fill="#FAFAFA"/>
<path d="M238.972 24.4943C239.061 23.988 239.509 23.5064 240.317 23.0495C241.149 22.5967 241.882 22.4249 242.515 22.5339C243.172 22.6472 243.679 22.8338 244.035 23.0938C244.39 23.3537 244.62 23.6168 244.724 23.8831C245.003 24.577 245.301 24.9512 245.618 25.0057C245.934 25.0602 246.326 24.8297 246.793 24.314C247.284 23.8026 247.688 23.5741 248.005 23.6286C248.346 23.6873 248.613 23.8823 248.805 24.2135C248.998 24.5448 249.067 24.8671 249.012 25.1805C248.859 26.0483 248.377 26.6484 247.566 26.9806C246.78 27.317 246.045 27.4265 245.364 27.309C244.706 27.1958 244.218 26.9751 243.899 26.647C243.585 26.2948 243.317 25.963 243.096 25.6517C242.879 25.3163 242.612 25.1213 242.296 25.0668C242.15 25.0416 241.796 25.2664 241.236 25.7412C240.681 26.1919 240.244 26.3899 239.928 26.3354C239.611 26.2809 239.344 26.0859 239.127 25.7505C238.939 25.3951 238.887 24.9764 238.972 24.4943ZM247.45 29.5685C248.522 29.753 248.898 30.7493 248.581 32.5574C248.547 32.7502 248.511 32.9551 248.473 33.1721L247.955 35.6908C247.791 36.4821 247.641 37.2635 247.505 38.0349L246.617 46.3017C246.511 46.9043 245.837 47.0987 244.595 46.8848C244.522 46.8722 244.339 46.8408 244.047 46.7904C243.779 46.7443 243.604 46.6023 243.52 46.3643C243.461 46.1306 243.495 45.8633 243.623 45.5625C243.776 45.2659 243.813 44.9121 243.735 44.5012C242.407 45.4896 240.818 45.8243 238.967 45.5055C235.534 44.9141 234.279 41.9907 235.203 36.7354C235.715 33.8184 236.651 31.707 238.009 30.4011C239.392 29.0994 241.118 28.6268 243.188 28.9833C244.162 29.1511 245.106 29.4876 246.021 29.9929C246.414 29.6135 246.89 29.472 247.45 29.5685ZM243.073 32.2048C241.685 31.9657 240.581 32.1852 239.759 32.8633C238.937 33.5414 238.34 34.9412 237.967 37.0626C237.34 40.6305 238.001 42.5822 239.949 42.9177C240.46 43.0058 241.06 42.8733 241.75 42.5201C242.463 42.1711 242.993 41.7283 243.338 41.1917C244.029 39.9696 244.511 38.5871 244.782 37.0442C245.053 35.5014 245.055 34.3468 244.788 33.5806C244.546 32.8186 243.974 32.36 243.073 32.2048Z" fill="#FAFAFA"/>
<path d="M259.079 31.4851C260.838 31.7576 262.146 32.8148 263.006 34.657C263.89 36.5029 264.146 38.5984 263.776 40.9433C263.409 43.2641 262.509 45.1557 261.077 46.618C259.67 48.084 258.001 48.6676 256.072 48.3687C254.168 48.0735 252.761 47.0011 251.853 45.1514C250.948 43.2775 250.659 41.3131 250.983 39.2583C251.4 36.6232 252.27 34.6032 253.593 33.1983C255.004 31.7081 256.833 31.137 259.079 31.4851ZM258.17 34.3905C257.144 34.2316 256.218 34.6329 255.39 35.5945C254.563 36.556 254.055 37.6291 253.868 38.8136C253.578 40.6509 253.722 42.1099 254.302 43.1904C254.882 44.2709 255.635 44.883 256.563 45.0268C258.224 45.2841 259.399 44.7356 260.088 43.3811C260.39 42.7345 260.622 41.9035 260.782 40.8882C261.409 36.9234 260.538 34.7576 258.17 34.3905Z" fill="#FAFAFA"/>
</svg>
