<svg width="23" height="30" viewBox="0 0 23 30" fill="none" xmlns="http://www.w3.org/2000/svg">
<path d="M15.6365 5.15454L21.3361 4.42088C21.7641 8.24376 20.4413 11.4091 19.8693 12.3805C19.2974 13.3518 17.4567 15.0561 15.8308 15.4333C14.53 15.7351 13.645 15.6967 13.3651 15.6398C13.4008 15.7688 13.6151 16.2389 14.1867 17.0881C14.9011 18.1496 14.8473 18.8315 14.3469 19.769C13.8464 20.7065 12.1846 21.7133 10.6302 21.5315C9.07586 21.3496 7.46806 20.4492 6.86079 19.5994C6.37496 18.9196 5.07435 18.5795 4.48477 18.4945C4.56807 18.8342 4.98476 19.7277 5.9851 20.5836C7.23553 21.6534 8.73602 23.0423 9.48617 24.1744C10.2363 25.3065 10.2362 25.6566 9.75372 26.1917C9.27121 26.7268 7.26997 27.5008 7.37728 27.0123C7.48459 26.5239 6.89519 25.6219 5.73411 24.4659C4.57304 23.3099 3.30465 22.6423 2.358 21.3846C1.41134 20.127 1.69739 19.2912 2.44812 17.7974C3.19885 16.3037 5.48595 15.5692 8.07616 17.6228C10.1483 19.2657 11.2857 19.8495 11.5954 19.936C11.7205 19.5704 11.4635 18.362 9.43428 16.4537C6.89774 14.0683 6.2727 12.7456 6.38013 11.732C6.48755 10.7183 7.22025 9.97704 9.16773 9.88494C11.1152 9.79285 12.5443 11.0406 13.6874 12.5989C14.6019 13.8456 15.8429 14.3482 16.3491 14.4436C16.4384 14.5325 16.7959 14.083 17.5111 11.5733C18.2263 9.06374 16.5594 6.24847 15.6365 5.15454Z" fill="#9BD1DB"/>
</svg>
