<svg width="16" height="28" viewBox="0 0 16 28" fill="none" xmlns="http://www.w3.org/2000/svg">
<path d="M5.76146 3.4513L1.12524 1.49938C0.206796 5.12845 0.842343 8.49747 1.17555 9.56739C1.50876 10.6373 2.79018 12.6963 4.08808 13.4166C5.12639 13.9929 5.86866 14.1477 6.11 14.1531C6.06132 14.2709 5.8138 14.6821 5.21318 15.3848C4.4624 16.2631 4.40686 16.9387 4.68556 17.9601C4.96426 18.9815 6.19941 20.3226 7.51994 20.4831C8.84047 20.6435 10.3112 20.116 10.9416 19.4205C11.446 18.8642 12.5786 18.8155 13.0818 18.8607C12.9625 19.1733 12.4843 19.9527 11.5257 20.5688C10.3276 21.339 8.87439 22.3654 8.0835 23.3047C7.29262 24.244 7.24119 24.5849 7.56412 25.2107C7.88704 25.8364 9.43896 27.0245 9.42148 26.5256C9.404 26.0268 10.0272 25.2766 11.1637 24.4032C12.3001 23.5298 13.4541 23.1553 14.427 22.1364C15.3999 21.1174 15.2847 20.2416 14.8795 18.6242C14.4743 17.0069 12.6787 15.7952 10.2207 17.2322C8.25427 18.3818 7.22171 18.7032 6.95123 18.7202C6.90084 18.337 7.29248 17.2163 9.26218 15.799C11.7243 14.0273 12.4391 12.8753 12.4987 11.8651C12.5584 10.8549 12.0576 9.97404 10.4501 9.46149C8.84264 8.94895 7.46965 9.85344 6.28898 11.1224C5.34444 12.1376 4.23756 12.3575 3.80218 12.3405C3.71476 12.4076 3.48337 11.8923 3.25713 9.29366C3.0309 6.69498 4.83242 4.31597 5.76146 3.4513Z" fill="#E07DA8"/>
</svg>
