<svg width="29" height="30" viewBox="0 0 29 30" fill="none" xmlns="http://www.w3.org/2000/svg">
<path d="M21.3903 6.66569L19.6372 1.55064C16.1507 3.053 13.9665 5.69709 13.3658 6.64708C12.765 7.59707 12.0618 9.96271 12.4166 11.5036C12.7005 12.7363 13.1044 13.4564 13.2709 13.6624C13.1444 13.6953 12.6479 13.7451 11.6738 13.6811C10.4561 13.601 9.88877 13.9776 9.28741 14.8514C8.68606 15.7253 8.51123 17.6024 9.31974 18.8115C10.1283 20.0207 11.5808 20.9249 12.5703 21.0185C13.362 21.0934 14.2011 22.0137 14.5217 22.4645C14.1929 22.5603 13.2454 22.647 12.0858 22.2283C10.6364 21.7048 8.80623 21.1278 7.51257 21.0523C6.21892 20.9767 5.91607 21.1471 5.65527 21.8102C5.39447 22.4733 5.5633 24.5205 5.94094 24.1933C6.31857 23.8661 7.34583 23.9194 8.83234 24.3263C10.3188 24.7333 11.4277 25.4674 12.9124 25.6459C14.397 25.8244 15.0002 25.179 15.978 23.8257C16.9557 22.4723 16.633 20.2057 13.7712 19.0424C11.4818 18.1117 10.5002 17.4461 10.2956 17.2297C10.5595 16.9474 11.7126 16.5741 14.2137 17.3398C17.34 18.297 18.7461 18.1754 19.578 17.5927C20.4099 17.0099 20.7443 16.0376 20.008 14.367C19.2718 12.6964 17.5937 12.1104 15.7666 11.9141C14.305 11.7571 13.3503 10.9656 13.0557 10.5894C12.9413 10.5581 13.1805 10.041 15.052 8.22316C16.9234 6.40528 20.0573 6.4274 21.3903 6.66569Z" fill="#9BD1DB"/>
</svg>
