<svg width="29" height="30" viewBox="0 0 29 30" fill="none" xmlns="http://www.w3.org/2000/svg">
<path d="M7.88947 6.33484L9.85005 0.932981C13.4438 2.30499 15.6506 4.93161 16.2518 5.88519C16.8529 6.83877 17.5239 9.25586 17.1138 10.8738C16.7858 12.1682 16.346 12.9372 16.1671 13.1599C16.2981 13.1872 16.8142 13.2123 17.8309 13.0936C19.1018 12.9452 19.6832 13.3055 20.287 14.1801C20.8907 15.0546 21.0238 16.9931 20.1497 18.2911C19.2756 19.5892 17.7384 20.6054 16.7048 20.7556C15.8779 20.8758 14.9794 21.8758 14.6336 22.3608C14.9737 22.4425 15.9588 22.4817 17.178 21.985C18.702 21.3641 20.6242 20.6672 21.9742 20.5194C23.3242 20.3716 23.6353 20.5322 23.8897 21.2063C24.1442 21.8805 23.9147 24.0138 23.5298 23.6946C23.1448 23.3753 22.073 23.4857 20.5134 23.9877C18.9537 24.4897 17.7791 25.311 16.2273 25.5758C14.6756 25.8406 14.0639 25.2033 13.0805 23.8514C12.0971 22.4995 12.4927 20.1301 15.5051 18.7694C17.9151 17.6808 18.9553 16.9376 19.1742 16.702C18.9066 16.4232 17.7148 16.0977 15.0886 17.0265C11.8059 18.1874 10.3438 18.1366 9.49218 17.5765C8.64055 17.0164 8.31759 16.0254 9.12844 14.2523C9.93929 12.4793 11.7033 11.7811 13.6122 11.4795C15.1394 11.2382 16.1549 10.3656 16.4718 9.95948C16.5918 9.92086 16.3561 9.39712 14.4535 7.6111C12.5509 5.82507 9.28474 6.01608 7.88947 6.33484Z" fill="#E07DA8"/>
</svg>
