<svg width="206" height="21" viewBox="0 0 206 21" fill="none" xmlns="http://www.w3.org/2000/svg">
<path d="M102.659 9.68768C99.403 12.3296 95.1637 12.3296 91.7845 9.99488C91.7845 10.425 91.7845 10.7936 91.7845 11.2237C94.9179 9.38048 99.0958 7.23008 102.352 9.99488C103.028 10.5478 104.011 9.5648 103.335 9.01184C99.5259 5.75552 94.8565 7.78304 91.1086 9.99488C90.6171 10.3021 90.6785 10.9165 91.1086 11.2237C95.1022 13.9885 99.956 13.7427 103.704 10.7322C104.38 10.1792 103.397 9.19616 102.721 9.74912L102.659 9.68768Z" fill="#FFF8E1"/>
<path d="M103.028 10.4863C105.179 12.0837 107.698 13.4968 110.463 13.3125C112.122 13.1896 114.333 12.3909 115.009 10.6706C115.071 10.4248 115.009 10.1791 114.825 9.99474C113.473 8.52018 110.401 8.02866 108.558 7.84434C106.408 7.66002 103.889 7.72146 102.23 9.19602C101.554 9.81042 102.537 10.7935 103.213 10.1791C104.687 8.95026 107.083 9.07314 108.865 9.25746C109.541 9.3189 113.227 9.87186 113.35 10.6706C113.412 11.2235 111.016 11.7765 110.708 11.8379C109.848 11.9608 109.05 11.8994 108.189 11.7151C106.531 11.285 105.056 10.3019 103.704 9.3189C102.967 8.76594 102.291 9.99474 103.028 10.5477L103.028 10.4863Z" fill="#FFF8E1"/>
<path d="M102.537 9.99484C99.895 12.7596 101.062 16.7532 102.353 19.8252C102.598 20.4396 103.458 20.1324 103.643 19.6409C104.503 17.6134 104.994 15.5859 105.117 13.374C105.179 11.9609 105.302 10.5478 104.073 9.6262C103.336 9.07324 102.66 10.302 103.397 10.855C104.319 11.5308 103.643 14.6028 103.458 15.5244C103.213 16.8147 102.783 18.1049 102.291 19.2723C102.721 19.2108 103.151 19.1494 103.581 19.088C102.537 16.6304 101.431 13.1283 103.581 10.9164C104.196 10.2406 103.213 9.25756 102.598 9.9334L102.537 9.99484Z" fill="#FFF8E1"/>
<path d="M103.888 9.13465C103.519 7.90585 102.659 6.86137 102.475 5.57113C102.229 4.03513 102.536 2.49913 103.335 1.14745C102.905 1.08601 102.475 1.02457 102.045 0.963135C102.475 2.31481 102.905 3.91225 102.905 5.32537C102.905 6.61561 102.168 7.66009 102.045 8.95033C101.983 9.87193 103.335 9.81049 103.458 8.95033C103.581 7.47577 104.379 6.36985 104.257 4.83385C104.134 3.42073 103.765 1.94617 103.396 0.594495C103.212 0.0415345 102.413 -0.0813455 102.106 0.410174C101.307 1.70041 100.877 3.17497 100.939 4.71097C101 6.55417 101.983 7.78297 102.475 9.44185C102.721 10.302 104.072 9.93337 103.826 9.07321L103.888 9.13465Z" fill="#FFF8E1"/>
<path d="M80.8576 11.8624C74.1607 12.4768 67.4637 12.7226 60.7053 12.8455C54.0084 13.0298 47.3114 12.7226 40.553 12.5997L20.4007 12.2925L0.248383 11.8624V11.6167L20.4007 11.1866L40.553 10.8794C47.25 10.7565 53.9469 10.5108 60.7053 10.6336C67.4023 10.7565 74.0992 11.0023 80.8576 11.6167V11.8624Z" fill="#FFF8E1"/>
<path d="M87.6775 11.8012C87.6775 12.3541 87.1859 12.8456 86.633 12.8456C86.08 12.8456 85.5885 12.3541 85.5885 11.8012C85.5885 11.2482 86.08 10.7567 86.633 10.7567C87.1859 10.7567 87.6775 11.2482 87.6775 11.8012Z" fill="#FFF8E1"/>
<path d="M125.156 11.6172C131.853 11.0028 138.55 10.7571 145.308 10.6342C152.005 10.4499 158.702 10.7571 165.461 10.8799L185.613 11.1871L205.765 11.6172V11.863L185.613 12.293L165.461 12.6002C158.764 12.7231 152.067 12.9689 145.308 12.846C138.611 12.7231 131.914 12.4774 125.156 11.863V11.6172Z" fill="#FFF8E1"/>
<path d="M118.398 11.8012C118.398 12.3541 118.889 12.8456 119.442 12.8456C119.995 12.8456 120.486 12.3541 120.486 11.8012C120.486 11.2482 119.995 10.7567 119.442 10.7567C118.889 10.7567 118.398 11.2482 118.398 11.8012Z" fill="#FFF8E1"/>
</svg>
