<svg width="32" height="32" viewBox="0 0 32 32" fill="none" xmlns="http://www.w3.org/2000/svg">
<path fill-rule="evenodd" clip-rule="evenodd" d="M20 2.66669H8.00001C6.89334 2.66669 5.94668 3.33335 5.54668 4.29335L1.52001 13.6934C1.40001 14 1.33334 14.32 1.33334 14.6667V17.3334C1.33334 18.8 2.53334 20 4.00001 20H12.4133L11.1467 26.0934L11.1067 26.52C11.1067 27.0667 11.3333 27.5734 11.6933 27.9334L13.1067 29.3334L21.88 20.5467C22.3733 20.0667 22.6667 19.4 22.6667 18.6667V5.33335C22.6667 3.86669 21.4667 2.66669 20 2.66669ZM20 18.6667L14.2133 24.4534L15.6933 17.3334H4.00001V14.6667L8.00001 5.33335H20V18.6667ZM30.6667 2.66669H25.3333V18.6667H30.6667V2.66669Z" fill="#F1F8E9"/>
</svg>
