<svg width="32" height="32" viewBox="0 0 32 32" fill="none" xmlns="http://www.w3.org/2000/svg">
<path fill-rule="evenodd" clip-rule="evenodd" d="M12 29.3334H24C25.1067 29.3334 26.0533 28.6667 26.4533 27.7067L30.48 18.3067C30.6 18 30.6667 17.68 30.6667 17.3334V14.6667C30.6667 13.2 29.4667 12 28 12H19.5867L20.8533 5.90669L20.8933 5.48002C20.8933 4.93335 20.6667 4.42669 20.3067 4.06669L18.8933 2.66669L10.1067 11.4534C9.62666 11.9334 9.33333 12.6 9.33333 13.3334V26.6667C9.33333 28.1334 10.5333 29.3334 12 29.3334ZM12 13.3334L17.7867 7.54669L16 14.6667H28V17.3334L24 26.6667H12V13.3334ZM6.66666 13.3334H1.33333V29.3334H6.66666V13.3334Z" fill="#F1F8E9"/>
</svg>
