<svg width="2" height="93" viewBox="0 0 2 93" fill="none" xmlns="http://www.w3.org/2000/svg">
<path d="M0.997378 49.6923C1.47398 53.2679 1.66462 56.8435 1.75995 60.4519C1.90293 64.0275 1.66462 67.603 1.5693 71.2114L1.331 81.9709L0.997377 92.7305L0.806735 92.7305L0.473112 81.9709L0.23481 71.2114C0.139489 67.6358 -0.0511531 64.0603 0.0441679 60.4519C0.139489 56.8763 0.330131 53.3007 0.806736 49.6923L0.997378 49.6923Z" fill="#FFF8E1"/>
<path d="M0.807157 43.0381C0.330552 39.4626 0.13991 35.887 0.0445888 32.2786C-0.0983926 28.703 0.13991 25.1275 0.235231 21.5191L0.473534 10.7595L0.807157 7.63902e-06L0.997799 7.64129e-06L1.33142 10.7595L1.56972 21.5191C1.66505 25.0947 1.85569 28.6702 1.76037 32.2786C1.66505 35.8542 1.4744 39.4298 0.997799 43.0381L0.807157 43.0381Z" fill="#FFF8E1"/>
<path d="M0.949849 46.6466C1.3788 46.6466 1.76008 46.3842 1.76008 46.0889C1.76008 45.7937 1.3788 45.5313 0.949849 45.5313C0.520903 45.5313 0.139618 45.7937 0.139618 46.0889C0.139618 46.3842 0.520903 46.6466 0.949849 46.6466Z" fill="#FFF8E1"/>
</svg>
